<svg xmlns="http://www.w3.org/2000/svg" width="346" height="124.6" style="enable-background:new 0 0 346 124.6" xml:space="preserve"><style>.st7{fill:#35a1c9}.st10{fill:#3a014b}</style><radialGradient id="SVGID_1_" cx="16.052" cy="26.131" r="82.399" gradientUnits="userSpaceOnUse"><stop offset="0" style="stop-color:#0f6dae"/><stop offset="1" style="stop-color:#103b97"/></radialGradient><path d="M64.5 10.5C36.1 6.9 9.8 24.8 2.2 51.6c14.9 14.7 60.4 18 106.9-8.6-8-17.1-24.4-29.9-44.6-32.5z" style="fill:url(#SVGID_1_)"/><radialGradient id="SVGID_2_" cx="97.725" cy="71.832" r="77.63" gradientUnits="userSpaceOnUse"><stop offset="0" style="stop-color:#ffb301"/><stop offset="1" style="stop-color:#ff2f00"/></radialGradient><path d="M113.3 55.3C83.1 78.1 41.1 101.7 8.4 97.2c3.9 6.5 9.1 12.1 15.3 16.6C60.4 109 91.1 82.5 114.1 60c-.2-1.6-.5-3.2-.8-4.7z" style="fill:url(#SVGID_2_)"/><radialGradient id="SVGID_3_" cx="107.593" cy="72.172" r="74.68" gradientUnits="userSpaceOnUse"><stop offset="0" style="stop-color:#a6d61f"/><stop offset="1" style="stop-color:#5aa74a"/></radialGradient><path d="M114.3 61.9c-13.7 18.4-44.9 53.3-75.7 59.6 3.6 1.2 7.4 2.2 11.4 2.7 31.4 4 60.1-18.2 64.1-49.5.5-4.4.6-8.6.2-12.8z" style="fill:url(#SVGID_3_)"/><radialGradient id="SVGID_4_" cx="31.839" cy="73.938" r="95.665" gradientUnits="userSpaceOnUse"><stop offset="0" style="stop-color:#b63597"/><stop offset=".685" style="stop-color:#4f017d"/><stop offset="1" style="stop-color:#0d0333"/></radialGradient><path d="M135.7 30.2c-8.1 6.4-16.5 11.9-25 16.8C71.2 69.5 29.8 75.2 0 67.1 0 73.6 1 80 3.1 85.9c31.6 7 71-9.9 108.9-35.5 8.1-5.5 16.1-11.4 24-17.5 3.6-3.8 3.2-5-.3-2.7z" style="fill:url(#SVGID_4_)"/><radialGradient id="SVGID_5_" cx="13.403" cy="-151.184" r="44.506" gradientTransform="rotate(7.297 -1356.954 69.39)" gradientUnits="userSpaceOnUse"><stop offset="0" style="stop-color:#abdc84"/><stop offset="1" style="stop-color:#267e95"/></radialGradient><path d="M64.9 33.7c-3-.6 0-3-1.4-3.6-1.4-.6-1.2 1.8-3.8 2.6-2.6.8-.9-2-2.1-4.1-1.3-2.1-5.1-2-5.4-1.1-.3.9-.9 1.2-.9 2.9s2.4 2.4-.8 3.1c-3.1.7-.6 1.4-1.1 2.5-.5 1.1-1.2.8-1.3-.5 0-1.3.4-3.2-3.6-3.3-4-.1-4.6-4-3.5-5.6 1.2-1.6 2.7-.6 3.9-1 1.2-.4.6-1.8 2.3-1.6 1.7.2 3.7-.7 3.2-2.4-.5-1.8-2.3.1-4.1.6-1.8.5.3-.5-1.9-1.4-2.2-.8-1.9 1.5-2.9 2.1-1 .6-1.3-.2-3.2-.4-1.9-.2-4.2.2-5.8 1-1.6.7-4.9-.6-7.2-1.3-3.8 2.7-7.3 5.9-10.3 9.5.3.8.6 1.7.8 2.5.7 3.1.6 1.6 1.4 4 .8 2.4-.6 5.8-2.5 9s.2 1.4 1.8 3.7c1.6 2.3 0 1.3.2 2.5.1.8.8 2.4 1.6 4.4.3.1.7.2 1 .3-.9-2.7-.4-4.1.2-2.6.3.9.9 1.8 1.6 3 2.8.7 6 1.2 9.5 1.6.5-.9 1.2-1.6 2.1-1.6 2.6.1 1.3.2 3.9-.5 2.6-.6 1.4-.2 2.5.1.7.2 1.5 1.1 2.8 2.3 1.2 0 2.4-.1 3.7-.2-.3-1.2-.7-2.6-.8-3.5-.2-2.5 2.8-2.3 4.2-4.4 1.4-2.1 3.3-3.4 5.4-5 2.1-1.6 1.5-1.7 3.8-1.8 2.3-.1.5.8 2.2.8 1.7 0 2.7-1.7 0-2.9-2.7-1.1 1.1-1.4-1.1-1.9s-1.5-1.3-1.5-1.3 5.8-.8 9.4-.5c3.6.3 2.6-4 2.4-5.4-.5-1.2-1.8 0-4.7-.6zm-15.8-14c.9.1 5.6.9 7.2 2.1 1.6 1.2 1.2 2.4-1.1 2.5-1.5.1-3.3.2-.9.8 2.4.7 3.4.1 4 1.5.6 1.4 2.5 2.4 2.6 1.9.1-.6-2.4-1.8-.2-1.5 2.2.3 2.8.5 2-.7-.8-1.2-3.7-2.4-1.1-2 2.6.3 7.3 3.8 3.2.2s-4.3-2.4-4.1-3.6c.1-1.1 2.4-.8-1-1.5-3.3-.6-3.8.3-4.3-.9-.4-1.2-.3-3.3-2.1-1.4s-.5 3.6-1.8 1.9c-1.3-1.7-4.6-1.3-4.6-1.3.2 1.7 1.3 1.9 2.2 2zm39.6 1.9c-6.4-4.4-13.9-7.5-22.1-8.9.1.9.3 1.9.5 3 .1.7-1.1 1.2.7 2.2 1.8 1 4.4 1.1 3 1.7-1.4.6-3.1.4-2.2.9.9.5 3 .6 2.2.8-.8.3-2.2-.7-1.5 1.3.7 2 .6 3.1 3.1 5.7s4.2-.2 4.6 1.3c.4 1.6-1 3.1 1.2 4.1s2.6-1.2 2.5-3.5c-.1-2.3-2-2.5.3-3.6 2.2-1 2.5.1 3.8-1.4 1.3-1.5 1.6-1.9 1.5-2.5-.1 0 1-.5 2.4-1.1z" style="fill:url(#SVGID_5_)"/><radialGradient id="SVGID_6_" cx="146.234" cy="12.561" r="25.358" gradientUnits="userSpaceOnUse"><stop offset="0" style="stop-color:#4f017d"/><stop offset=".146" style="stop-color:#40016c"/><stop offset=".414" style="stop-color:#290052"/><stop offset=".656" style="stop-color:#190141"/><stop offset=".859" style="stop-color:#100337"/><stop offset="1" style="stop-color:#0d0333"/></radialGradient><path d="M162.4 10.1c-2.5-.2-6.4 1.6-8.3 2.4-1.8.8-7 4.8-11.5 7-4.6 2.2-8.1 2.2-11.5 2.1-3.4-.1-9.5-1-14.7 1.6-3.9 1.8-4.6 2.7-4 3.3.6.6 8.5.7 12.5 1.7 4.1 1 5.5 1.9 5.5 1.9l2.7-.3s-7.8 6.9-9.2 7.7c-1.4.8-3.2.4-7.4.8s-6.1 3.2-5.2 3.3c.7.1 7.8.6 11.8 1 13.1-9.3 35.5-26.4 35.5-26.4 4.7-3.9 6.9-6.3 3.8-6.1zm-16.6 23.8c.9-.3 2.4-3 1.8-7.5l-7.4 5.8c1.4 1.1 4.7 1.9 5.6 1.7z" style="fill:url(#SVGID_6_)"/><radialGradient id="SVGID_7_" cx="133.382" cy="1.636" r="6.161" gradientUnits="userSpaceOnUse"><stop offset="0" style="stop-color:#4f017d"/><stop offset=".146" style="stop-color:#40016c"/><stop offset=".414" style="stop-color:#290052"/><stop offset=".656" style="stop-color:#190141"/><stop offset=".859" style="stop-color:#100337"/><stop offset="1" style="stop-color:#0d0333"/></radialGradient><path style="fill:url(#SVGID_7_)" d="m135.2 0 1.2 2.5 2.8.4-2 2 .5 2.8-2.5-1.3-2.5 1.3.4-2.8-2-2 2.8-.4z"/><path class="st7" d="m161.9 24.4 1.9 3.9 4.3.6-3.1 3 .7 4.3-3.8-2-3.8 2 .7-4.3-3.1-3 4.3-.6z"/><radialGradient id="SVGID_8_" cx="105.109" cy="12.976" r="2.384" gradientUnits="userSpaceOnUse"><stop offset="0" style="stop-color:#0f6dae"/><stop offset="1" style="stop-color:#103b97"/></radialGradient><path style="fill:url(#SVGID_8_)" d="m105.1 10.7.8 1.5 1.7.2-1.3 1.2.3 1.7-1.5-.8-1.5.8.3-1.7-1.2-1.2 1.7-.2z"/><radialGradient id="SVGID_9_" cx="120.791" cy="12.027" r="1.417" gradientUnits="userSpaceOnUse"><stop offset="0" style="stop-color:#4f017d"/><stop offset=".146" style="stop-color:#40016c"/><stop offset=".414" style="stop-color:#290052"/><stop offset=".656" style="stop-color:#190141"/><stop offset=".859" style="stop-color:#100337"/><stop offset="1" style="stop-color:#0d0333"/></radialGradient><path style="fill:url(#SVGID_9_)" d="m120.8 10.6.4 1 1 .1-.7.7.2 1-.9-.5-.9.5.2-1-.8-.7 1-.1z"/><g><path class="st7" d="m136.3 57.8 4.1 15.7c.9 3.4 1.7 6.6 2.3 9.8h.2c.7-3.1 1.7-6.4 2.7-9.8l5-15.8h4.7l4.8 15.4c1.1 3.7 2 7 2.7 10.1h.2c.5-3.1 1.3-6.4 2.4-10l4.4-15.5h5.6l-10 30.9h-5.1l-4.7-14.7c-1.1-3.4-2-6.5-2.7-10.1h-.1c-.8 3.7-1.7 6.9-2.8 10.2l-5 14.7h-5.1l-9.3-30.9h5.7zM208.3 73c0 11.4-7.9 16.4-15.4 16.4-8.4 0-14.8-6.1-14.8-15.9 0-10.3 6.8-16.4 15.3-16.4 8.9 0 14.9 6.4 14.9 15.9zm-24.5.3c0 6.8 3.9 11.9 9.4 11.9 5.4 0 9.4-5 9.4-12 0-5.2-2.6-11.9-9.3-11.9-6.6 0-9.5 6.1-9.5 12zM215.4 67.4c0-3.6-.1-6.8-.3-9.6h4.9l.2 6.1h.3c1.4-4.1 4.8-6.8 8.6-6.8.6 0 1.1.1 1.6.2v5.3c-.6-.1-1.1-.2-1.9-.2-4 0-6.8 3-7.5 7.2-.1.8-.3 1.7-.3 2.6v16.5h-5.6V67.4zM236.5 43.4h5.6v45.3h-5.6V43.4zM278.3 43.4v37.3c0 2.7.1 5.9.3 8h-5l-.3-5.4h-.1c-1.7 3.4-5.5 6.1-10.5 6.1-7.5 0-13.2-6.3-13.2-15.7-.1-10.3 6.3-16.6 13.9-16.6 4.7 0 7.9 2.2 9.3 4.7h.1V43.4h5.5zm-5.6 27c0-.7-.1-1.7-.3-2.4-.8-3.6-3.9-6.5-8.1-6.5-5.8 0-9.3 5.1-9.3 11.9 0 6.3 3.1 11.4 9.1 11.4 3.8 0 7.2-2.5 8.2-6.7.2-.8.3-1.5.3-2.4v-5.3z"/><path class="st10" d="M288.2 88.7V62.1h-4.3v-4.3h4.3v-1.3c0-4.3 1.5-8.1 4.3-10.7 2.4-2 5.6-3.1 9.9-3.1 3.6 0 7 .8 9.3 2v44h-5.6V47.8c-1-.5-2.4-.8-4.6-.8-5.9 0-7.8 4.3-7.8 9.3v1.5h7.2v4.3h-7.2v26.6h-5.5zM323 57.8l6.8 18.3c.7 2 1.5 4.5 2 6.3h.1c.6-1.9 1.2-4.2 2-6.4l6.1-18.1h5.9l-8.4 22c-4 10.6-6.8 16-10.6 19.3-2.7 2.4-5.5 3.4-6.9 3.6l-1.4-4.7c1.4-.4 3.3-1.3 4.9-2.7 1.5-1.2 3.4-3.4 4.7-6.3.3-.6.4-1 .4-1.3 0-.3-.1-.8-.4-1.5l-11.4-28.5h6.2z"/></g><g><path d="M138.2 100.6h-3.1v-1.1h7.5v1.1h-3.1v9h-1.3v-9zM154.7 104.4c0 3.5-2.1 5.3-4.7 5.3-2.7 0-4.5-2.1-4.5-5.1 0-3.2 2-5.3 4.7-5.3s4.5 2.1 4.5 5.1zm-7.9.2c0 2.2 1.2 4.1 3.2 4.1 2.1 0 3.2-1.9 3.2-4.2 0-2-1-4.1-3.2-4.1-2.1 0-3.2 1.9-3.2 4.2zM160.4 99.5v6c0 2.3 1 3.2 2.4 3.2 1.5 0 2.5-1 2.5-3.2v-6h1.3v5.9c0 3.1-1.6 4.4-3.8 4.4-2.1 0-3.6-1.2-3.6-4.3v-6h1.2zM171.5 99.6c.7-.1 1.6-.2 2.5-.2 1.4 0 2.3.3 2.9.8.5.5.8 1.1.8 1.9 0 1.3-.8 2.2-1.9 2.6.8.3 1.2 1 1.5 2 .3 1.4.6 2.4.8 2.8h-1.3c-.2-.3-.4-1.2-.7-2.4-.3-1.4-.8-1.9-2-2h-1.2v4.4h-1.3v-9.9zm1.3 4.6h1.3c1.4 0 2.3-.8 2.3-1.9 0-1.3-.9-1.9-2.3-1.9-.6 0-1.1.1-1.3.1v3.7zM182.1 108c.6.4 1.4.7 2.3.7 1.3 0 2.1-.7 2.1-1.7 0-.9-.5-1.5-1.9-2-1.6-.6-2.7-1.4-2.7-2.9 0-1.6 1.3-2.7 3.3-2.7 1 0 1.8.2 2.2.5l-.4 1.1c-.3-.2-1-.5-1.9-.5-1.4 0-1.9.8-1.9 1.5 0 .9.6 1.4 2 2 1.7.7 2.6 1.5 2.6 3 0 1.6-1.2 2.9-3.5 2.9-1 0-2-.3-2.6-.6l.4-1.3zM199.9 106.4l-1 3.2h-1.3l3.4-10.1h1.6l3.5 10.1h-1.4l-1.1-3.2h-3.7zm3.3-1-1-2.9c-.2-.7-.4-1.3-.5-1.8-.2.6-.3 1.2-.5 1.8l-1 2.9h3zM210.1 109.6V99.5h1.4l3.2 5.1c.8 1.2 1.3 2.2 1.8 3.3-.1-1.4-.1-2.6-.1-4.2v-4.2h1.2v10.1h-1.3l-3.2-5.1c-.7-1.1-1.4-2.3-1.9-3.4.1 1.3.1 2.5.1 4.2v4.3h-1.2zM222.7 99.6c.8-.1 1.7-.2 2.8-.2 1.9 0 3.2.4 4.1 1.3.9.8 1.4 2 1.4 3.6 0 1.7-.5 3-1.5 3.9-.9.9-2.5 1.5-4.5 1.5-.9 0-1.7 0-2.4-.1v-10zm1.3 8.9c.3.1.8.1 1.3.1 2.8 0 4.3-1.6 4.3-4.3 0-2.4-1.3-3.9-4.1-3.9-.7 0-1.2.1-1.5.1v8zM242.5 100.6h-3.1v-1.1h7.5v1.1h-3.1v9h-1.3v-9zM250.8 99.6c.7-.1 1.6-.2 2.5-.2 1.4 0 2.3.3 2.9.8.5.5.8 1.1.8 1.9 0 1.3-.8 2.2-1.9 2.6.8.3 1.2 1 1.5 2 .3 1.4.6 2.4.8 2.8H256c-.2-.3-.4-1.2-.7-2.4-.3-1.4-.8-1.9-2-2h-1.2v4.4h-1.3v-9.9zm1.3 4.6h1.3c1.4 0 2.3-.8 2.3-1.9 0-1.3-.9-1.9-2.3-1.9-.6 0-1.1.1-1.3.1v3.7zM263.3 106.4l-1 3.2H261l3.4-10.1h1.6l3.5 10.1h-1.4l-1.1-3.2h-3.7zm3.3-1-1-2.9c-.2-.7-.4-1.3-.5-1.8-.2.6-.3 1.2-.5 1.8l-1 2.9h3zM274.9 109.6l-3.3-10.1h1.4l1.6 5c.4 1.4.8 2.6 1.1 3.8.3-1.2.7-2.4 1.2-3.8l1.7-5h1.4l-3.6 10.1h-1.5zM289 104.8h-3.9v3.6h4.4v1.1h-5.7v-10h5.5v1.1h-4.2v3.2h3.9v1zM293.9 99.5h1.3v9h4.3v1.1h-5.6V99.5zM303.5 108c.6.4 1.4.7 2.3.7 1.3 0 2.1-.7 2.1-1.7 0-.9-.5-1.5-1.9-2-1.6-.6-2.7-1.4-2.7-2.9 0-1.6 1.3-2.7 3.3-2.7 1 0 1.8.2 2.2.5l-.4 1.1c-.3-.2-1-.5-1.9-.5-1.4 0-1.9.8-1.9 1.5 0 .9.6 1.4 2 2 1.7.7 2.6 1.5 2.6 3 0 1.6-1.2 2.9-3.5 2.9-1 0-2-.3-2.6-.6l.4-1.3z"/></g></svg>